<svg version="1.2" xmlns="http://www.w3.org/2000/svg" viewBox="0 0 54 18" width="54" height="18"><defs><linearGradient id="P" gradientUnits="userSpaceOnUse"/><linearGradient id="g1" x1="7" y1="18.3" x2="52.7" y2="1.5" href="#P"><stop stop-color="#222357"/><stop offset="1" stop-color="#254aa5"/></linearGradient><linearGradient id="g2" x1="3.9" y1="9.9" x2="49.6" y2="-6.9" href="#P"><stop stop-color="#222357"/><stop offset="1" stop-color="#254aa5"/></linearGradient><linearGradient id="g3" x1="5.7" y1="15" x2="51.5" y2="-1.9" href="#P"><stop stop-color="#222357"/><stop offset="1" stop-color="#254aa5"/></linearGradient><linearGradient id="g4" x1="9" y1="23.8" x2="54.7" y2="6.9" href="#P"><stop stop-color="#222357"/><stop offset="1" stop-color="#254aa5"/></linearGradient></defs><style>.a{fill:url(#g1)}.b{fill:url(#g2)}.c{fill:url(#g3)}.d{fill:url(#g4)}</style><path class="a" d="m38.5 11.6c0 3.5-3 5.8-7.6 5.8-1.9 0-3.8-0.4-4.8-0.9l0.8-3.7c1 0.5 2.3 1.1 4.5 1.1 1.2 0 2.6-0.5 2.6-1.6 0-0.7-0.6-1.3-2.3-2.1-1.6-0.8-3.8-2.2-3.8-4.6 0.1-3.3 3.1-5.6 7.4-5.6 1.7 0 3 0.4 4.1 0.7l-0.8 3.6c-1.9-0.9-3.7-0.9-4.3-0.8-1.3 0.2-1.9 0.8-1.9 1.4-0.1 2 6.1 2.3 6.1 6.7z"/><path class="b" d="m20.5 0.3l-7.1 16.9h-4.6l-3.5-13.5c-0.2-0.8-0.4-1.2-1-1.5-1-0.5-2.8-1.1-4.3-1.4l0.1-0.5h7.4c0.9 0 1.8 0.6 2 1.7l1.9 9.8 4.5-11.5z"/><path class="c" d="m26.8 0.3l-3.6 16.9h-4.4l3.6-16.9z"/><path fill-rule="evenodd" class="d" d="m54 17.1h-4l-0.5-2.5h-5.6l-0.9 2.5h-4.6l6.5-15.6c0.4-0.7 1.1-1.2 1.9-1.2h3.7zm-5.3-5.9l-1.3-6.3-2.3 6.3z"/></svg>