<svg version="1.2" xmlns="http://www.w3.org/2000/svg" viewBox="0 0 40 24" width="40" height="24"><style>.a{fill:#0066cb}.b{fill:none;stroke:#0066cb;stroke-width:.3}.c{fill:#cc0001}.d{fill:#231f20}.e{fill:#fff}</style><path class="a" d="m18.3 22.2q-1 0.6-2 1-1 0.4-2.1 0.6-1.1 0.2-2.2 0.2c-6.6 0-12-5.4-12-12 0-6.6 5.4-12 12-12q1.1 0 2.2 0.2 1.1 0.2 2.1 0.6 1 0.4 2 1 0.9 0.6 1.7 1.3c2.5 2.2 4 5.4 4 8.9q0 1.3-0.3 2.5-0.2 1.2-0.7 2.4-0.5 1.1-1.3 2.1-0.7 1.1-1.7 1.9-0.8 0.7-1.7 1.3z"/><path class="a" d="m20 3.1c2.5 2.2 4 5.4 4 8.9q0 1.3-0.3 2.5-0.2 1.2-0.7 2.4-0.5 1.1-1.3 2.1-0.7 1.1-1.7 1.9"/><path class="b" d="m20 3.1c2.5 2.2 4 5.4 4 8.9q0 1.3-0.3 2.5-0.2 1.2-0.7 2.4-0.5 1.1-1.3 2.1-0.7 1.1-1.7 1.9"/><path class="c" d="m40.1 12c0 6.6-5.4 12-12 12q-1.1 0-2.2-0.2-1.1-0.2-2.1-0.6-1-0.4-2-1-0.9-0.6-1.7-1.3 0.6-0.6 1.2-1.3h-2.5q-0.5-0.6-0.9-1.2h4.3q0.4-0.7 0.7-1.3h-5.7q-0.3-0.6-0.5-1.3h6.7q0.1-0.4 0.2-0.9 0.2-0.5 0.2-1 0.1-0.4 0.2-0.9 0-0.5 0-1 0-1.3-0.3-2.5h-7.3q0.1-0.7 0.3-1.3h6.7q-0.2-0.7-0.5-1.3h-5.7q0.1-0.1 0.2-0.3 0.1-0.2 0.2-0.3 0.1-0.2 0.1-0.3 0.1-0.2 0.2-0.4h4.3q-0.4-0.6-0.9-1.2h-2.5q0.6-0.7 1.2-1.3 0.9-0.7 1.8-1.3 1-0.6 2-1 1-0.4 2.1-0.6 1.1-0.2 2.2-0.2c6.6 0 12 5.4 12 12z"/><path fill-rule="evenodd" class="d" d="m38.5 18.7c0-0.2 0.2-0.4 0.4-0.4 0.2 0 0.4 0.2 0.4 0.4 0 0.2-0.2 0.4-0.4 0.4q-0.1 0-0.2-0.1 0 0-0.1 0 0-0.1-0.1-0.2 0 0 0-0.1zm0.4 0.3c0.2 0 0.3-0.1 0.3-0.3 0-0.2-0.1-0.3-0.3-0.3-0.2 0-0.3 0.1-0.3 0.3 0 0.2 0.1 0.3 0.3 0.3zm-0.1-0.1v-0.4h0.1q0.1 0 0.1 0 0 0 0 0.1 0 0 0 0 0 0 0 0 0 0 0 0 0 0.1 0 0.1v0.2h-0.1v-0.2h-0.1c0 0 0 0.2 0 0.2zm0-0.2h0.1q0 0 0 0 0.1-0.1 0.1-0.1 0 0-0.1 0c0 0 0 0 0 0h-0.1c0 0 0 0.1 0 0.1zm-28.7-3.4h-1.5l0.9-4.6-2 4.6h-1.3l-0.2-4.6-1 4.6h-1.4l1.1-6h2.4v3.7l1.7-3.7h2.5c0 0-1.2 6-1.2 6zm16.7 0c-0.4 0.1-0.7 0.1-1.1 0.1-0.7 0-1.1-0.3-1.1-1.1q0-0.2 0-0.4l0.1-0.5 0.1-0.4 0.7-3.7h1.4l-0.2 1.1h0.8l-0.2 1.2h-0.8l-0.4 2.1q0 0.1 0 0.2c0 0.2 0.1 0.3 0.5 0.3q0.3 0 0.4 0zm-3.6-5q0.1 0 0.3 0 0.1 0 0.3 0 0.2 0 0.3 0 0.2 0.1 0.4 0.1l-0.2 1.1c-0.4 0-0.8 0-1.1 0q-0.8 0-0.8 0.4c0 0.2 0.1 0.2 0.8 0.5 0.7 0.3 1 0.7 1 1.4 0 1.1-0.7 1.6-2.3 1.6q-0.3 0-0.9 0-0.2 0-0.3-0.1h-0.3-0.1l0.2-1.2q0.2 0.1 0.3 0.1 0.2 0.1 0.4 0.1 0.2 0 0.3 0 0.2 0 0.4 0c0.6 0 0.8-0.1 0.8-0.4 0-0.2-0.1-0.3-0.7-0.6-0.8-0.3-1.1-0.7-1.1-1.3 0-1 0.6-1.7 2.3-1.7zm-8.2 5h-1.3v-0.5c-0.3 0.4-0.8 0.6-1.5 0.6-0.8 0-1.4-0.5-1.4-1.3 0-1.2 1-1.9 2.6-1.9q0.3 0 0.6 0c0.1-0.2 0.1-0.2 0.1-0.3 0-0.3-0.3-0.5-1-0.5-0.4 0-0.9 0.1-1.2 0.2h-0.2l-0.1 0.1 0.2-1.2c0.7-0.1 1.2-0.2 1.7-0.2 1.3 0 2 0.5 2 1.4 0 0.3 0 0.5-0.1 1l-0.3 1.8-0.1 0.3v0.2 0.2zm-1.1-2.2q0 0 0 0-0.1 0-0.1 0-0.1 0-0.1 0-0.1 0-0.1 0-1.3 0-1.3 0.7c0 0.3 0.3 0.5 0.6 0.5 0.6 0 1-0.5 1-1.2zm6 2.1q-0.2 0.1-0.4 0.1-0.2 0-0.4 0.1-0.2 0-0.4 0-0.2 0-0.4 0c-1.6 0-2.5-0.8-2.5-2.2 0-1.7 1.1-3 2.6-3 1.2 0 2 0.7 2 1.8 0 0.4 0 0.8-0.2 1.3h-2.9q-0.1 0.1-0.1 0.1 0 0.9 1.4 0.9c0.5 0 1-0.1 1.5-0.3zm-0.7-3q0-0.1 0-0.2c0-0.4-0.3-0.7-0.7-0.7-0.5 0-0.8 0.3-1 0.9zm16.7 0.8c-0.2 1.7-1.4 2.4-2.9 2.4-1.7 0-2.4-1-2.4-2.3 0-1.7 1.2-2.9 3-2.9 1.5 0 2.3 1 2.3 2.2 0 0.3 0 0.3 0 0.6zm-1.5-0.6c0-0.5-0.2-1-0.8-1-0.8 0-1.3 0.9-1.3 1.7 0 0.7 0.4 1.1 0.9 1.1 0.3 0 1-0.4 1.1-1.2q0.1-0.2 0.1-0.6z"/><path fill-rule="evenodd" class="e" d="m36 14.6c0-0.2 0.1-0.4 0.4-0.4 0.2 0 0.4 0.2 0.4 0.4q0 0.1-0.1 0.1 0 0.1-0.1 0.2 0 0-0.1 0.1-0.1 0-0.1 0-0.1 0-0.2 0-0.1-0.1-0.1-0.1-0.1-0.1-0.1-0.2 0 0 0-0.1zm0.4 0.3q0 0 0.1 0 0-0.1 0.1-0.1 0 0 0-0.1 0 0 0-0.1 0-0.1 0-0.1 0-0.1 0-0.1-0.1 0-0.1-0.1-0.1 0-0.1 0-0.1 0-0.2 0 0 0.1-0.1 0.1 0 0 0 0.1 0 0 0 0.1c0 0.2 0.1 0.3 0.3 0.3zm-0.1-0.1h-0.1v-0.4h0.2q0 0 0.1 0 0 0.1 0 0.1 0 0 0 0 0 0 0 0 0 0 0 0 0 0.1-0.1 0.1l0.1 0.2h-0.1v-0.2h-0.1zm0-0.2h0.1q0 0 0 0 0 0 0 0 0 0 0 0 0 0-0.1 0zm-25.8 0.4h-1.5l0.9-4.7-2.1 4.7h-1.3l-0.3-4.7-0.9 4.7h-1.3l1.2-6.1h2.3l0.1 3.8 1.7-3.8h2.4c0 0-1.2 6.1-1.2 6.1zm16.7-0.1c-0.4 0.1-0.7 0.2-1.1 0.2-0.8 0-1.2-0.4-1.2-1.1q0-0.2 0.1-0.5l0.1-0.4v-0.4l0.7-3.8h1.5l-0.2 1.1h0.8l-0.3 1.2h-0.7l-0.4 2.1q0 0.1 0 0.2 0 0.4 0.5 0.4 0.2 0 0.4-0.1z"/><path class="d" d="m30.8 11.9h-0.1q-0.1-0.1-0.2-0.1c-0.5-0.1-1.1 0.3-1.3 1.2-0.1 0.6-0.2 1.2-0.4 2.3h-1.5l0.9-4.9h1.6l-0.2 0.9c0.5-0.6 0.8-0.8 1.3-0.8q0 0 0 0 0.1 0 0.1 0 0 0 0 0 0 0 0 0 0.1 0 0.2 0 0 0 0.1 0l-0.3 0.8v0.2z"/><path fill-rule="evenodd" class="e" d="m31 11.5l-0.2-0.1q-0.1 0-0.2 0c-0.7 0-0.9 0.6-1.4 3.6h-1.5l0.9-5h1.3l-0.1 0.8c0.5-0.6 0.8-0.8 1.3-0.8q0 0 0 0 0.1 0 0.1 0 0 0 0 0 0 0 0.1 0 0 0 0.1 0c0 0 0 0 0.1 0.1zm-7.4-1.6q0.1 0 0.3 0 0.2 0 0.3 0.1 0.2 0 0.4 0 0.1 0 0.3 0l-0.2 1.2c-0.4-0.1-0.8-0.1-1.1-0.1q-0.7 0-0.7 0.4c0 0.2 0 0.3 0.7 0.5 0.7 0.3 1 0.7 1 1.4 0 1.1-0.7 1.7-2.3 1.7q-0.3 0-0.8-0.1-0.3 0-0.4 0l-0.3-0.1h-0.1l0.2-1.1c0.5 0.1 0.9 0.2 1.4 0.2q0.9 0 0.9-0.5c0-0.2-0.1-0.3-0.7-0.5-0.8-0.3-1.2-0.8-1.2-1.4 0-0.9 0.6-1.7 2.3-1.7zm-8.2 5.1h-1.3l0.1-0.5q-0.6 0.6-1.6 0.6c-0.8 0-1.3-0.6-1.3-1.4 0-1.2 0.9-1.9 2.6-1.9q0.2 0 0.6 0.1c0-0.2 0-0.3 0-0.4 0-0.3-0.2-0.4-0.9-0.4-0.5 0-0.9 0-1.3 0.1l-0.2 0.1h-0.1l0.2-1.1c0.7-0.2 1.2-0.3 1.8-0.3 1.3 0 1.9 0.5 1.9 1.5 0 0.2 0 0.4-0.1 1l-0.3 1.7v0.3l-0.1 0.3v0.2zm-1.1-2.3q0 0-0.1 0 0 0 0 0-0.1 0-0.1 0-0.1 0-0.1 0-1.3 0-1.3 0.8c0 0.3 0.2 0.5 0.5 0.5 0.7 0 1.1-0.5 1.1-1.3zm6 2.1q-0.7 0.2-1.5 0.2c-1.7 0-2.6-0.7-2.6-2.2 0-1.7 1.1-2.9 2.6-2.9 1.3 0 2 0.7 2 1.8 0 0.3 0 0.7-0.1 1.2h-3q0 0.1 0 0.2 0 0.8 1.3 0.8 0.2 0 0.4 0 0.2 0 0.4-0.1 0.2 0 0.4-0.1 0.2 0 0.3-0.1c0 0-0.2 1.2-0.2 1.2zm-0.8-2.9v-0.3c0-0.4-0.2-0.6-0.7-0.6-0.5 0-0.8 0.3-0.9 0.9zm16.7 0.8c-0.2 1.7-1.4 2.4-2.9 2.4-1.7 0-2.4-1-2.4-2.3 0-1.7 1.2-2.9 3-2.9 1.5 0 2.3 0.9 2.3 2.2 0 0.3 0 0.3 0 0.6zm-1.6-0.6c0-0.5-0.2-1-0.8-1-0.8 0-1.2 0.9-1.2 1.7 0 0.6 0.3 1.1 0.8 1.1 0.4 0 1.1-0.5 1.2-1.2q0-0.3 0-0.6z"/></svg>