<svg version="1.2" xmlns="http://www.w3.org/2000/svg" viewBox="0 0 20 20" width="20" height="20"><style>.a{fill:#d0011b}</style><path fill-rule="evenodd" class="a" d="m20 10.1c0 5.5-4.5 10-10 10q-1.6 0-3-0.4c0.4-0.7 1.1-1.8 1.3-2.7l0.6-2.4c0.3 0.7 1.3 1.2 2.3 1.2 3 0 5.2-2.8 5.2-6.3 0-3.3-2.7-5.8-6.2-5.8-4.3 0-6.6 2.9-6.6 6.1 0 1.5 0.8 3.3 2 3.9q0.3 0.1 0.4-0.1c0-0.2 0.2-0.9 0.3-1.2q0-0.1-0.1-0.3c-0.4-0.5-0.8-1.4-0.8-2.3 0-2.2 1.7-4.3 4.6-4.3 2.4 0 4.1 1.7 4.1 4.1 0 2.7-1.3 4.6-3.1 4.6-1 0-1.7-0.8-1.5-1.8 0.3-1.2 0.8-2.5 0.8-3.4 0-0.8-0.4-1.4-1.2-1.4-1 0-1.8 1-1.8 2.4 0 0.9 0.3 1.5 0.3 1.5 0 0-1 4.2-1.2 5-0.2 0.9-0.1 2.1 0 2.9-3.8-1.5-6.4-5.1-6.4-9.3 0-5.6 4.5-10.1 10-10.1 5.5 0 10 4.5 10 10.1z"/></svg>