<svg version="1.2" xmlns="http://www.w3.org/2000/svg" viewBox="0 0 20 20" width="20" height="20"><style>.a{fill:#4979c3}</style><path fill-rule="evenodd" class="a" d="m19.5 0.1q0.1 0 0.3 0.1 0.1 0.2 0.1 0.3 0.1 0.2 0.1 0.3v18.5c0 0.4-0.4 0.8-0.8 0.8h-5.4l-0.1-7.5h2.5l0.7-3.2h-3.2v-2.1c0-0.8 0.3-1.4 1.6-1.4h1.6v-2.7q-0.3-0.1-0.6-0.1-0.3 0-0.6 0-0.3-0.1-0.6-0.1-0.2 0-0.5 0c-2.3 0-4 1.3-4 3.9v2.5h-2.5v3.2h2.5v7.5h-9.8c-0.4 0-0.8-0.4-0.8-0.8v-18.5q0-0.1 0.1-0.3 0-0.1 0.1-0.3 0.2-0.1 0.3-0.1 0.2-0.1 0.3-0.1h18.4q0.1 0 0.3 0.1z"/></svg>