<svg version="1.2" xmlns="http://www.w3.org/2000/svg" viewBox="0 0 20 17" width="20" height="17"><style>.a{fill:#5dc5e3}</style><path fill-rule="evenodd" class="a" d="m19.6 2.5q-0.3 0.3-0.5 0.6-0.3 0.3-0.6 0.5-0.2 0.3-0.5 0.5 0 0.2 0 0.5c0 5.5-4.2 11.7-11.7 11.7q-0.8 0-1.7-0.1-0.8-0.1-1.6-0.3-0.8-0.3-1.5-0.6-0.8-0.4-1.5-0.8 0.1 0 0.2 0 0.2 0 0.3 0 0.1 0 0.2 0 0.2 0 0.3 0 0.7 0 1.3-0.1 0.7-0.1 1.4-0.3 0.6-0.2 1.2-0.6 0.6-0.3 1.2-0.7-0.7 0-1.3-0.2-0.6-0.3-1.1-0.6-0.5-0.4-0.9-0.9-0.4-0.6-0.6-1.2 0.3 0.1 0.5 0.1 0.2 0 0.5 0 0.2 0 0.4-0.1 0.3 0 0.5-0.1-0.7-0.1-1.3-0.5-0.6-0.3-1.1-0.9-0.4-0.5-0.7-1.2-0.2-0.7-0.2-1.4v-0.1q0.2 0.2 0.4 0.3 0.3 0.1 0.5 0.1 0.2 0.1 0.5 0.1 0.2 0.1 0.5 0.1-0.5-0.3-0.8-0.7-0.3-0.4-0.6-0.8-0.2-0.5-0.3-1-0.2-0.5-0.2-1 0-0.2 0.1-0.5 0-0.3 0.1-0.5 0-0.3 0.2-0.6 0.1-0.2 0.2-0.4 0.8 0.9 1.7 1.7 1 0.8 2.1 1.3 1.1 0.6 2.2 0.9 1.2 0.3 2.4 0.4-0.1-0.5-0.1-1c0-2.3 1.9-4.1 4.1-4.1q0.5 0 0.9 0.1 0.4 0.1 0.8 0.2 0.4 0.2 0.7 0.5 0.4 0.2 0.6 0.5 0.4-0.1 0.7-0.2 0.4-0.1 0.7-0.2 0.3-0.1 0.6-0.3 0.3-0.1 0.6-0.3-0.1 0.4-0.2 0.7-0.2 0.3-0.4 0.6-0.3 0.3-0.6 0.5-0.2 0.3-0.6 0.5 0.3-0.1 0.6-0.1 0.4-0.1 0.6-0.2 0.3 0 0.6-0.1 0.3-0.1 0.6-0.3-0.2 0.3-0.4 0.6z"/></svg>