<svg version="1.2" xmlns="http://www.w3.org/2000/svg" viewBox="0 0 42 26" width="42" height="26"><style>.a{fill:#ff5f00}.b{fill:#eb001b}.c{fill:#f79e1b}</style><path class="a" d="m14.8 2.8h12.5v20.4h-12.5z"/><path class="b" d="m21 23.2c-4.7 3.7-11.3 3.7-16 0-5.7-4.4-6.6-12.5-2.2-18.2 4.4-5.7 12.6-6.6 18.2-2.2-3.2 2.5-5 6.2-5 10.2 0 4 1.9 7.7 5 10.2z"/><path class="c" d="m42 13c0 7.2-5.8 13-13 13-2.9 0-5.7-1-8-2.8 5.6-4.4 6.6-12.6 2.2-18.2-0.6-0.8-1.4-1.5-2.2-2.2 5.6-4.5 13.8-3.5 18.2 2.2 1.8 2.2 2.8 5.1 2.8 8z"/></svg>