<svg version="1.2" xmlns="http://www.w3.org/2000/svg" viewBox="0 0 25 25" width="25" height="25"><style>.a{fill:#006fcf}.b{fill:#fff}</style><path class="a" d="m25 17.7v7.3h-25v-25h25v13.5c0 0-0.1 4.2 0 4.2z"/><path class="b" d="m21.3 11.5v0.6h-2.7l-0.2-0.6h-0.4l-0.2 0.6h-2c-0.1 0-0.2 0-0.3-0.1 0 0-0.1 0-0.2-0.1 0 0-0.1 0-0.2-0.1v0.3h-2.7l-0.4-0.6v0.6h-9.9l-0.2-0.6h-0.4l-0.2 0.6h-1.3v-2.5l0.8-1.9h1.8l0.3 0.8v-0.8h2.2l0.3 0.8 0.3-0.8h9.4v0.3c0.1 0 0.2 0 0.3-0.1 0.1 0 0.2-0.1 0.3-0.1 0.1 0 0.2-0.1 0.3-0.1h3.2l0.3 0.8v-0.8h1.8l0.4 0.6v-0.6h2.1v4.4h-1.9c0 0-0.4-0.6-0.6-0.6zm2.8 6.5h-8.3l-0.4-0.6v0.6h-2v-1.2c-0.3 0.1-0.6 0.2-1 0.2h0.1v1h-2.8l-0.3-0.6-0.4 0.6h-4.5v-4.4h4.4l0.4 0.6 0.4-0.6h15.3v4.1c-0.3 0.2-0.6 0.2-0.9 0.3z"/><path fill-rule="evenodd" class="a" d="m24.4 16.3q0-0.3-0.3-0.3h-0.7c-0.6 0-0.9-0.2-0.9-0.8 0-0.5 0.4-0.9 1-0.9h1.5l-0.3 0.6h-1.3q-0.3 0-0.3 0.3 0 0.3 0.3 0.3h0.7c0.6 0 0.9 0.2 0.9 0.8 0 0.5-0.4 0.9-1 0.9h-1.4v-0.6h1.5q0.3 0 0.3-0.3zm-2.7 0q0-0.3-0.3-0.3h-0.7c-0.6 0-0.9-0.2-0.9-0.8 0-0.5 0.4-0.9 1-0.9h1.5l-0.3 0.6h-1.4q-0.3 0-0.3 0.3 0 0.3 0.3 0.3h0.7c0.6 0 0.9 0.2 0.9 0.8 0 0.5-0.4 0.9-1 0.9h-1.4v-0.6h1.5c0.2 0 0.4-0.1 0.4-0.3zm-2.3-1.4l-1.8-0.1v0.6h1.6v0.6h-1.6v0.7h1.7v0.6h-2.3v-3h2.4zm-4.7 2.4h-0.7v-3h1.6c0.6 0 1 0.3 1 0.9 0 0.5-0.3 0.8-0.8 0.9l1 1.1h-0.8l-0.9-1.1h-0.3c0 0-0.1 1.1-0.1 1.2zm0.1-2.5v0.7h0.8c0.3 0 0.4-0.1 0.4-0.3 0-0.1-0.1-0.3-0.4-0.3zm-2.1-0.5c0.6 0 1 0.4 1 1 0 0.6-0.5 1-1.1 1h-0.9v1h-0.7v-3c0 0 1.6-0.1 1.7 0zm-0.2 0.6h-0.8v0.8h0.9c0.3 0 0.4-0.2 0.4-0.4 0-0.3-0.2-0.4-0.5-0.4zm-3.3 1.3l-0.7 0.9h-0.8l1.2-1.4-1.2-1.4h0.9l0.7 0.9 0.7-0.9h0.8l-1.2 1.4 1.2 1.5h-0.8c0 0-0.7-1-0.8-1zm-3.4-1.4v0.6h1.6v0.6h-1.6v0.7h1.7v0.6h-2.3v-3h2.3v0.6zm15-5.5v2h-0.7v-3h0.9l1.1 1.7 0.2 0.3v-1.9h0.7v3h-0.8l-1.2-1.8c0 0-0.1-0.2-0.2-0.3zm-1.8 1.5h-1.5l-0.3 0.6h-0.7l1.3-3h0.9l1.3 3h-0.7zm-1.1-0.5h1l-0.3-0.7-0.2-0.6-0.2 0.6c0 0-0.3 0.6-0.3 0.7zm-3.1-0.3v-0.1c0-0.8 0.5-1.4 1.4-1.4h0.8v0.6h-0.7c-0.5 0-0.8 0.3-0.8 0.8v0.1c0 0.5 0.3 0.8 0.8 0.8h0.2l-0.3 0.6c-0.8 0-1.3-0.5-1.4-1.4zm-1.1-1.5h0.7v2.9h-0.7zm-2.4 3.1h-0.7v-3h1.6c0.6 0 1 0.3 1 0.9 0 0.5-0.3 0.8-0.8 0.9l1 1.1h-0.8l-0.9-1.1h-0.3c0 0 0 1-0.1 1.2zm0.1-2.6v0.7h0.8c0.3 0 0.4-0.1 0.4-0.3 0-0.1-0.1-0.3-0.4-0.3zm-2.9 0v0.6h1.6v0.7h-1.6v0.6h1.7v0.6h-2.3v-3h2.3v0.6zm-4.1 0.1v2.3h-0.7v-3h1l0.7 2 0.7-2h1.2v3h-0.7v-2.4l-0.9 2.4h-0.6c0 0-0.6-1.9-0.7-2.3zm0-0.1q0 0 0 0.1zm-2 1.8h-1.4l-0.3 0.6h-0.7l1.3-3h0.8l1.3 3h-0.7zm-1.2-0.5h1l-0.3-0.7-0.2-0.6-0.2 0.6c0 0-0.3 0.6-0.3 0.7z"/></svg>