<svg version="1.2" xmlns="http://www.w3.org/2000/svg" viewBox="0 0 62 16" width="62" height="16"><style>.a{fill:#003087}.b{fill:#002f86}.c{fill:#009cde}.d{fill:#012069}</style><path class="a" d="m12 4.1q-0.1-0.1 0 0 0 0.1 0 0.2c-0.7 3.4-2.9 4.6-5.7 4.6h-1.4q-0.2 0-0.3 0-0.1 0.1-0.2 0.2-0.1 0-0.2 0.1 0 0.2 0 0.3v-0.2l-0.8 4.9h-3q-0.1 0-0.2 0 0-0.1-0.1-0.1-0.1-0.1-0.1-0.2 0-0.1 0-0.2l2-13.1q0.1-0.1 0.1-0.2 0.1-0.2 0.2-0.2 0.1-0.1 0.2-0.2 0.1 0 0.2 0h4.9c1.7 0 3 0.4 3.7 1.2 0.7 0.8 0.9 1.6 0.7 2.9z"/><path fill-rule="evenodd" class="b" d="m42.7 7.9l-5.4 7.9q0 0 0 0.1-0.1 0-0.1 0-0.1 0.1-0.1 0.1-0.1 0-0.1 0h-1.7c-0.2 0-0.3-0.3-0.2-0.5l1.7-2.4-1.8-5.3q0-0.1 0-0.1 0-0.1 0-0.2 0.1 0 0.1-0.1 0.1 0 0.2 0h1.6q0 0 0.1 0 0.1 0.1 0.1 0.1 0.1 0.1 0.1 0.1 0.1 0.1 0.1 0.1l1 3.3 2.2-3.4q0 0 0.1-0.1 0 0 0.1 0 0-0.1 0.1-0.1 0 0 0.1 0h1.6c0.2 0 0.4 0.3 0.2 0.5zm-8.7-0.5q0.1 0.1 0.1 0.1 0.1 0.1 0.1 0.1 0 0.1 0 0.1l-0.9 5.7q0 0.1 0 0.1-0.1 0.1-0.1 0.2-0.1 0-0.2 0-0.1 0.1-0.2 0.1h-1.4q-0.1 0-0.1-0.1-0.1 0-0.1 0-0.1-0.1-0.1-0.1 0-0.1 0-0.2l0.1-0.4c0 0-0.8 0.9-2.2 0.9-0.9 0-1.6-0.2-2.1-0.8-0.5-0.7-0.7-1.6-0.6-2.5 0.3-2 1.8-3.3 3.6-3.3 0.8 0 1.6 0.1 1.9 0.6l0.1 0.2 0.1-0.4q0-0.1 0-0.1 0.1-0.1 0.1-0.1 0-0.1 0.1-0.1 0 0 0.1 0h1.6q0.1 0 0.1 0zm-2.6 2q-0.4-0.4-1.1-0.4c-0.9 0-1.7 0.6-1.8 1.6-0.1 0.4 0 0.8 0.2 1.1q0.4 0.5 1.1 0.5c1 0 1.7-0.7 1.9-1.6 0-0.4-0.1-0.9-0.3-1.2zm-5.1-4.3q0.6 0.8 0.4 2.2-0.5 3.3-3.8 3.3h-1.1q-0.1 0-0.2 0 0 0.1-0.1 0.1-0.1 0.1-0.1 0.1 0 0.1-0.1 0.2l-0.3 2.4c-0.1 0.2-0.3 0.4-0.5 0.4h-1.6q-0.1 0-0.1-0.1-0.1 0-0.1 0-0.1-0.1-0.1-0.1 0-0.1 0-0.2l1.4-8.8q0 0 0-0.1 0.1-0.1 0.1-0.2 0.1 0 0.2 0 0.1-0.1 0.2-0.1h3.3c1.2 0 2 0.3 2.5 0.9zm-2.3 1.4c-0.2-0.4-0.8-0.4-1.4-0.4h-0.3q0 0-0.1 0.1 0 0 0 0-0.1 0-0.1 0.1 0 0 0 0.1l-0.4 2.3h0.5c0.9 0 1.8 0 2-1.3q0.1-0.6-0.2-0.9z"/><path fill-rule="evenodd" class="c" d="m59.9 4.4q0-0.1 0.1-0.1 0 0 0.1 0 0-0.1 0.1-0.1h1.5q0.1 0 0.1 0.1 0.1 0 0.1 0 0.1 0.1 0.1 0.1 0 0.1 0 0.2l-1.4 8.8q0 0.1 0 0.1-0.1 0.1-0.1 0.2-0.1 0-0.2 0-0.1 0.1-0.1 0.1h-1.4q-0.1 0-0.1-0.1-0.1 0-0.1 0-0.1-0.1-0.1-0.1 0-0.1 0-0.2l1.4-8.9q0-0.1 0-0.1zm-1.8 3q0 0.1 0.1 0.1 0 0.1 0 0.1 0.1 0.1 0.1 0.1l-0.9 5.7c-0.1 0.2-0.3 0.4-0.5 0.4h-1.4q-0.1 0-0.2-0.1 0 0-0.1 0 0-0.1 0-0.1 0-0.1 0-0.2l0.1-0.4c0 0-0.8 0.9-2.3 0.9-0.8 0-1.5-0.2-2-0.8-0.6-0.7-0.8-1.6-0.6-2.5 0.3-2 1.8-3.3 3.6-3.3 0.8 0 1.5 0.1 1.9 0.6l0.1 0.2 0.1-0.4q0-0.1 0-0.1 0-0.1 0.1-0.1 0-0.1 0.1-0.1 0 0 0.1 0h1.6q0 0 0.1 0zm-2.7 2q-0.3-0.4-1-0.4c-1 0-1.7 0.6-1.8 1.6-0.1 0.4 0 0.8 0.2 1.1q0.4 0.5 1.1 0.5c0.9 0 1.7-0.7 1.8-1.6 0.1-0.4 0-0.9-0.3-1.2zm-5.1-4.3q0.7 0.8 0.5 2.2-0.5 3.3-3.9 3.3h-1q-0.1 0-0.2 0-0.1 0.1-0.1 0.1-0.1 0.1-0.1 0.1-0.1 0.1-0.1 0.2l-0.4 2.5q0 0 0 0.1 0 0.1-0.1 0.1 0 0-0.1 0 0 0.1-0.1 0.1h-1.7q-0.1 0-0.2-0.1 0 0 0 0-0.1-0.1-0.1-0.1 0-0.1 0-0.2l1.4-8.8q0 0 0-0.1 0-0.1 0.1-0.2 0.1 0 0.2 0 0-0.1 0.1-0.1h3.4c1.1 0 2 0.3 2.4 0.9zm-2.2 1.4c-0.3-0.4-0.9-0.4-1.5-0.4h-0.2q-0.1 0-0.1 0.1 0 0-0.1 0 0 0 0 0.1-0.1 0-0.1 0.1l-0.3 2.3h0.5c0.9 0 1.8 0 2-1.3q0.1-0.6-0.2-0.9z"/><path class="a" d="m12 4.1q-0.1-0.1 0 0 0 0.1 0 0.2c-0.7 3.4-2.9 4.6-5.7 4.6h-1.4q-0.2 0-0.3 0-0.1 0.1-0.2 0.2-0.1 0-0.2 0.1 0 0.2 0 0.3v-0.2l-0.8 4.9h-3q-0.1 0-0.2 0 0-0.1-0.1-0.1-0.1-0.1-0.1-0.2 0-0.1 0-0.2l2-13.1q0.1-0.1 0.1-0.2 0.1-0.2 0.2-0.2 0.1-0.1 0.2-0.2 0.1 0 0.2 0h4.9c1.7 0 3 0.4 3.7 1.2 0.7 0.8 0.9 1.6 0.7 2.9z"/><path class="b" d="m4.2 9.3l-0.8 4.9h-3q-0.1 0-0.2 0 0-0.1-0.1-0.1-0.1-0.1-0.1-0.2 0-0.1 0-0.2l2-13.1q0.1-0.1 0.1-0.2 0.1-0.2 0.2-0.2 0.1-0.1 0.2-0.2 0.1 0 0.2 0h4.9c1.7 0 3 0.4 3.7 1.2 0.7 0.8 0.9 1.6 0.7 2.9q-0.2-0.2-0.5-0.3-0.1 0-0.2 0-0.1-0.1-0.2-0.1-0.1 0-0.2 0-0.1 0-0.2-0.1-0.6-0.1-1.3-0.1h-3.8q0 0-0.1 0.1 0 0 0 0-0.1 0-0.1 0 0 0-0.1 0 0 0-0.1 0.1 0 0-0.1 0.1 0 0.1-0.1 0.1 0 0.1 0 0.2z"/><path class="c" d="m12.2 4.2q0.1 0 0.2 0.1 0.1 0.1 0.1 0.1 0.1 0.1 0.2 0.2c0.6 0.7 0.7 1.8 0.5 3-0.6 2.9-2.5 4-4.9 4h-0.4q-0.1 0-0.2 0-0.1 0-0.2 0.1-0.1 0.1-0.2 0.2 0 0.1 0 0.2l-0.1 0.1-0.4 3.1-0.1 0.2q0 0.1 0 0.2-0.1 0.1-0.2 0.1-0.1 0.1-0.2 0.2-0.1 0-0.2 0h-2.5q-0.1 0-0.2 0 0-0.1-0.1-0.1 0-0.1-0.1-0.2 0-0.1 0-0.1l0.2-1.4 0.8-4.7q0-0.1 0-0.3 0.1-0.1 0.2-0.1 0.1-0.1 0.2-0.2 0.1 0 0.3 0h1.4c2.8 0 5-1.2 5.7-4.6q0 0 0 0 0-0.1 0-0.1 0 0 0-0.1 0 0 0 0 0.1 0 0.2 0.1z"/><path class="d" d="m11.5 3.8q0.1 0.1 0.2 0.1 0.1 0 0.1 0.1 0.1 0 0.2 0.1 0 0.1 0 0.3c-0.7 3.3-2.9 4.5-5.7 4.5h-1.4q-0.2 0-0.3 0-0.1 0.1-0.2 0.2-0.1 0-0.2 0.1 0 0.2 0 0.3v-0.2l0.8-5.2q0-0.1 0.1-0.2 0-0.1 0.1-0.2 0.1-0.1 0.2-0.1 0.1 0 0.2 0h3.8q0.2-0.1 0.4 0 0.1 0 0.3 0 0.1 0 0.3 0 0.1 0 0.3 0 0.1 0.1 0.2 0.1 0 0 0.1 0 0.1 0 0.2 0 0.1 0.1 0.1 0.1 0.1 0 0.2 0z"/></svg>