<svg version="1.2" xmlns="http://www.w3.org/2000/svg" viewBox="0 0 24 24" width="24" height="24"><style>.a{fill:#ece000}.b{fill:#fff}</style><path class="a" d="m0 12c0-6.6 5.4-12 12-12 6.6 0 12 5.4 12 12 0 6.6-5.4 12-12 12-6.6 0-12-5.4-12-12z"/><path fill-rule="evenodd" class="b" d="m12.1 5.2q0.1 0 0.2 0 0.1 0 0.1 0 0.1 0 0.2 0 0.2 0 0.5 0.1 0.2 0 0.5 0.1 0.2 0.1 0.4 0.2 0.2 0.1 0.5 0.3c0.7 0.5 1.3 1.3 1.5 2.2 0 0.5 0 1.1 0 1.6q0 0.5 0 1 0 0.1 0 0.1 0.2 0.1 0.5 0 0 0 0 0 0 0 0 0 0 0 0 0 0 0 0 0 0.2 0 0.5-0.1 0.1 0 0.2 0 0 0 0.1 0 0.1 0 0.1 0 0.1 0 0.2 0c0.1 0.1 0.2 0.2 0.3 0.3q0 0.1 0 0.2 0 0 0 0.1 0 0.1-0.1 0.1 0 0.1-0.1 0.1c-0.2 0.2-0.6 0.4-0.9 0.5-0.2 0.1-0.5 0.2-0.6 0.4q0 0 0 0 0 0 0 0 0 0 0 0 0 0 0 0c-0.1 0.1-0.1 0.3-0.1 0.5q0.1 0.1 0.2 0.3 0 0.1 0.1 0.3 0.1 0.1 0.2 0.2 0.1 0.2 0.2 0.3c0.5 0.6 1.2 1.2 1.9 1.4q0 0 0 0 0 0 0 0 0 0 0 0 0 0 0 0c0.1 0 0.3 0.1 0.5 0.2q0.1 0 0.1 0.1 0 0 0 0.1 0.1 0 0.1 0.1-0.1 0.1-0.1 0.1c-0.1 0.2-0.3 0.3-0.4 0.3q0 0 0 0 0 0 0 0 0 0 0 0 0 0 0 0c-0.4 0.1-0.7 0.3-1.1 0.3q0 0 0 0 0 0 0 0 0 0 0 0 0 0 0 0-0.2 0-0.3 0.1c-0.1 0.1-0.2 0.4-0.3 0.6q0 0 0 0.1 0 0 0 0 0 0 0 0 0 0 0 0 0.1-0.1 0 0 0 0 0 0 0 0 0 0.1 0 0 0 0 0 0 0 0 0 0-0.1 0 0 0 0 0.1 0 0 0 0-0.1 0-0.1 0 0 0 0 0-0.7-0.1-1.3-0.1h-0.1c-0.2 0-0.4 0-0.6 0.1-0.5 0.2-1 0.6-1.6 0.9q-0.4 0.2-0.8 0.3-0.1 0-0.2 0-0.2 0-0.3 0-0.1 0-0.3 0-0.1 0-0.2 0c-0.5 0-0.9-0.2-1.2-0.4-0.6-0.3-1-0.7-1.6-0.8-0.5-0.2-1-0.1-1.6 0q0 0 0 0 0 0 0 0 0 0 0 0 0 0 0 0c0 0-0.1 0.1-0.3 0q0 0 0 0 0 0 0 0-0.1 0-0.1-0.1 0 0 0 0c-0.1-0.2-0.1-0.4-0.2-0.6q0-0.2 0-0.2c-0.2-0.1-0.4-0.1-0.7-0.2-0.3 0-0.7-0.1-1-0.3q0 0-0.1 0 0-0.1 0-0.1 0 0 0 0-0.1 0-0.1 0 0-0.1 0-0.1 0-0.1 0-0.1-0.1 0-0.1-0.1 0.1 0 0.1-0.1 0 0 0 0 0 0 0 0 0 0 0 0 0 0 0 0c0.1-0.2 0.3-0.2 0.4-0.2q0.1-0.1 0.3-0.1 0.1-0.1 0.3-0.1 0.1-0.1 0.2-0.2 0.2 0 0.3-0.1 0.2-0.2 0.5-0.4 0.2-0.2 0.4-0.4 0.2-0.2 0.3-0.5 0.2-0.2 0.3-0.5c0.2-0.2 0.3-0.5 0.2-0.7 0-0.2-0.2-0.4-0.5-0.4-0.3-0.2-0.6-0.3-0.9-0.5q0 0 0 0 0 0-0.1 0 0 0 0 0 0 0 0 0 0 0-0.1-0.1-0.1 0-0.1-0.1 0 0 0 0 0-0.1-0.1-0.1 0 0 0-0.1 0 0 0 0c0-0.2 0.2-0.3 0.3-0.4q0 0 0.1-0.1 0.1 0 0.1 0 0.1 0 0.1 0 0.1 0 0.2 0 0.2 0.1 0.5 0.1 0 0 0.1 0.1 0.1 0 0.2 0 0.1 0 0.1 0 0.1 0 0.2-0.1c0-0.4 0-0.8 0-1.3-0.1-0.6-0.1-1.3 0.2-1.9q0.1-0.3 0.2-0.5 0.1-0.2 0.3-0.4 0.1-0.2 0.3-0.4 0.2-0.2 0.4-0.3c0.7-0.6 1.6-0.8 2.5-0.8q0.1 0 0.2 0z"/></svg>