<svg version="1.2" xmlns="http://www.w3.org/2000/svg" viewBox="0 0 26 23" width="26" height="23"><style>.a{fill:#cd0067}.b{fill:#fff}</style><path  d="m2.9 12.9h4.2v7.1h-4.2z"/><path  d="m5 11.8c-1.3 0-2.3-1-2.3-2.4 0-1.3 1-2.4 2.3-2.4 1.3 0 2.4 1.1 2.4 2.4 0 1.4-1.1 2.4-2.4 2.4z"/><path fill-rule="evenodd" d="m14.9 0c3.2 0.1 5.9 1 7.7 2.7q1.7 1.5 2.5 3.6 0.9 2.3 0.9 5.2c0 4.1-1.1 7.1-3.4 9-1.8 1.6-4.4 2.4-7.7 2.5h-14.9v-23h14.9zm-13.4 1.5v20h13.2c6.6 0 9.8-3.3 9.8-10 0-3.4-1-6-2.9-7.7-1.6-1.5-4-2.3-6.9-2.3z"/><path class="a" d="m14.3 20h-5.3v-16.6h5.3-0.3c4.4 0 9.1 1.8 9.1 8.3 0 6.9-4.7 8.3-9.1 8.3 0 0 0.3 0 0.3 0z"/><path fill-rule="evenodd" class="b" d="m8.1 7.7h1.4q0.5 0 0.8 0 0.3 0.1 0.6 0.4 0.2 0.3 0.3 0.7 0.2 0.3 0.2 0.9 0 0.5-0.2 0.9-0.1 0.4-0.4 0.7 0 0-0.1 0.1-0.1 0-0.1 0-0.1 0.1-0.2 0.1-0.1 0.1-0.1 0.1-0.1 0-0.2 0-0.1 0-0.2 0-0.1 0.1-0.2 0.1-0.1 0-0.1 0h-1.5zm0.8 0.6v2.7h0.5q0.4 0 0.5-0.1 0.1 0 0.1 0 0.1 0 0.1 0 0 0 0.1-0.1 0 0 0 0 0.2-0.1 0.3-0.4 0-0.3 0-0.7 0-0.5 0-0.8-0.1-0.2-0.3-0.3-0.1-0.2-0.3-0.2-0.2-0.1-0.7-0.1z"/><path fill-rule="evenodd" class="b" d="m9.5 7.6q0.5 0 0.8 0 0.1 0.1 0.2 0.1 0.1 0 0.1 0.1 0.1 0 0.2 0.1 0.1 0.1 0.1 0.1 0.1 0.1 0.2 0.2 0 0.1 0.1 0.2 0 0 0.1 0.1 0 0.1 0 0.2 0.2 0.4 0.2 1 0 0.5-0.2 0.9-0.1 0.4-0.4 0.7-0.2 0.3-0.6 0.4-0.3 0.1-0.7 0.1h-1.6v-4.2zm-1.4 0.2v3.8h1.4q0.1 0 0.2-0.1 0 0 0.1 0 0.1 0 0.2 0 0.1 0 0.2 0 0 0 0.1-0.1 0.1 0 0.1 0 0.1-0.1 0.2-0.1 0-0.1 0.1-0.1 0-0.1 0.1-0.2 0.1 0 0.1-0.1 0.1-0.1 0.1-0.2 0-0.1 0.1-0.2 0.1-0.3 0.1-0.8 0-0.5-0.1-0.9-0.2-0.4-0.4-0.6-0.2-0.3-0.5-0.4-0.3 0-0.7 0z"/><path fill-rule="evenodd" class="b" d="m9.2 8.2q0.5 0 0.7 0.1 0 0 0.1 0 0.1 0 0.1 0.1 0.1 0 0.1 0 0.1 0.1 0.1 0.1 0 0 0.1 0.1 0 0 0.1 0.1 0 0 0 0.1 0 0.1 0.1 0.1 0 0.3 0 0.8 0 0.4 0 0.7-0.1 0.3-0.3 0.5 0 0-0.1 0 0 0.1-0.1 0.1 0 0 0 0-0.1 0-0.1 0-0.2 0.1-0.6 0.1h-0.7v-2.9zm0 0.3c0.4 0 0.6 0 0.7 0q0 0 0.1 0 0 0 0 0 0.1 0.1 0.1 0.1 0.1 0 0.1 0.1 0 0 0.1 0 0 0.1 0 0.1 0 0.1 0.1 0.1 0 0 0 0.1 0.1 0.2 0.1 0.7 0 0.4-0.1 0.7-0.1 0.2-0.2 0.3 0 0-0.1 0 0 0.1 0 0.1-0.1 0-0.1 0 0 0-0.1 0 0 0.1-0.1 0.1 0 0-0.1 0 0 0-0.1 0-0.1 0-0.1 0h-0.5v-2.4zm6 3.2v-0.7h-2.2v-1.1h2v-0.7h-2v-0.9h2.1v-0.6h-2.9v4z"/><path fill-rule="evenodd" class="b" d="m15.3 7.6v0.9h-2.1v0.6h1.9v0.9h-1.9v0.9h2.1v0.9h-3.2v-4.2zm-2.9 0.2v3.7h2.8v-0.4h-2.2v-1.3h2v-0.5h-2v-1.1h2.1v-0.4zm7.4 3.9h-0.9l-0.4-0.9h-1.5l-0.4 0.9h-0.8l1.5-4h0.9zm-1.5-1.6l-0.5-1.5-0.6 1.5z"/><path fill-rule="evenodd" class="b" d="m18.2 7.6l1.6 4.2h-1.1l-0.3-0.9h-1.4l-0.3 0.9h-1.1l1.6-4.2zm-0.9 0.2q-0.1 0.4-0.3 0.9-0.2 0.5-0.4 1-0.2 0.4-0.3 0.9-0.2 0.5-0.4 1h0.6l0.3-1h1.8l0.3 1h0.6l-1.5-3.8z"/><path fill-rule="evenodd" class="b" d="m17.7 8.3l0.7 1.9h-1.4zm0 0.6l0.4 1.1h-0.8zm5.5 2.7v-0.7h-2v-3.2h-0.8v3.9z"/><path fill-rule="evenodd" class="b" d="m21.2 7.6v3.3h2v0.9h-3v-4.2zm-0.8 0.2v3.8h2.6v-0.5h-2v-3.3z"/></svg>