<svg version="1.2" xmlns="http://www.w3.org/2000/svg" viewBox="0 0 24 17" width="24" height="17"><style>.a{fill:#da2c2a}</style><path fill-rule="evenodd" class="a" d="m24 7.6v1.8c0 2-0.2 3.9-0.2 3.9 0 0-0.2 1.7-1 2.4-0.9 1-1.9 1-2.4 1-3.3 0.3-8.4 0.3-8.4 0.3 0 0-6.2-0.1-8.2-0.2-0.5-0.1-1.7-0.1-2.6-1.1-0.7-0.7-1-2.4-1-2.4 0 0-0.2-1.9-0.2-3.9v-1.8c0-2 0.2-3.9 0.2-3.9 0 0 0.3-1.7 1-2.4 0.9-1 1.9-1 2.4-1.1 3.4-0.2 8.4-0.2 8.4-0.2 0 0 5.1 0 8.4 0.2 0.5 0.1 1.5 0.1 2.4 1.1 0.8 0.7 1 2.4 1 2.4 0 0 0.2 1.9 0.2 3.9zm-8 0.7l-6.5-3.5v6.8z"/></svg>