<svg version="1.2" xmlns="http://www.w3.org/2000/svg" viewBox="0 0 25 24" width="25" height="24"><style>.a{fill:#c68916}</style><path fill-rule="evenodd" class="a" d="m0.2 9.4c-0.1-0.6 0.2-1 0.8-1h23q0.2 0 0.4 0.1 0.1 0 0.3 0.2 0.1 0.1 0.1 0.3 0.1 0.2 0 0.4l-2 13.6c-0.1 0.5-0.6 1-1.2 1h-18.2c-0.6 0-1.1-0.4-1.2-1 0 0-2-13.6-2-13.6z"/><path fill-rule="evenodd" class="a" d="m21.8 8.9q-0.1 0.4-0.4 0.6-0.4 0.2-0.8 0.1-0.4-0.1-0.6-0.4l-4.2-6.8q-0.2-0.4-0.1-0.8 0.1-0.4 0.4-0.6 0.4-0.2 0.8-0.1 0.4 0.1 0.6 0.4l4.2 6.8q0.2 0.4 0.1 0.8zm-15.6 0.3l4.2-6.8q0.2-0.4 0.1-0.8-0.1-0.4-0.4-0.6-0.4-0.2-0.8-0.1-0.4 0.1-0.6 0.4l-4.2 6.8q-0.2 0.4-0.1 0.8 0.1 0.4 0.4 0.6 0.4 0.2 0.8 0.1 0.4-0.1 0.6-0.4z"/></svg>